<?xml version="1.0" encoding="utf-8"?>
<!-- Generator: Adobe Illustrator 16.0.0, SVG Export Plug-In . SVG Version: 6.00 Build 0)  -->
<!DOCTYPE svg PUBLIC "-//W3C//DTD SVG 1.1//EN" "http://www.w3.org/Graphics/SVG/1.1/DTD/svg11.dtd">
<svg version="1.1" id="Layer_1" xmlns="http://www.w3.org/2000/svg" xmlns:xlink="http://www.w3.org/1999/xlink" x="0px" y="0px"
	 width="30px" height="30px" viewBox="0 0 30 30" enable-background="new 0 0 30 30" xml:space="preserve">
<g>
	<path fill="#AAAAAA" d="M15.378,0L7.905,7.473c0,0,1.391,10.096-6.444,18.136c-0.291,0.11-0.563,0.28-0.796,0.514
		c-0.786,0.785-0.875,1.996-0.273,2.882l13.173-13.172c-0.458-0.733-0.374-1.71,0.264-2.348c0.742-0.742,1.944-0.742,2.686,0
		c0.74,0.741,0.742,1.944,0,2.686c-0.638,0.637-1.615,0.723-2.347,0.265L0.996,29.606c0.883,0.603,2.097,0.516,2.883-0.271
		c0.234-0.234,0.402-0.509,0.512-0.801c8.042-7.833,18.136-6.44,18.136-6.44L30,14.621L15.378,0z"/>
</g>
</svg>
